<svg width="24" height="25" viewBox="0 0 24 25" fill="none" xmlns="http://www.w3.org/2000/svg">
<path d="M12.9639 3.31905L12.9639 3.31906L19.7139 9.07981L19.714 9.07984C20.0525 9.36871 20.25 9.79616 20.25 10.2491V19.6624C20.25 20.2341 19.7941 20.6828 19.25 20.6828H16.25C15.7059 20.6828 15.25 20.2341 15.25 19.6624V15.6133C15.25 14.5263 14.3911 13.6281 13.3029 13.5994L13.293 13.5991H13.2831H10.7169H10.707L10.6971 13.5994C9.60892 13.6281 8.75 14.5263 8.75 15.6133V19.6624C8.75 20.2341 8.29414 20.6828 7.75 20.6828H4.75C4.20586 20.6828 3.75 20.2341 3.75 19.6624V10.2491C3.75 9.79616 3.94754 9.3687 4.28603 9.07981L11.0361 3.31906L11.0361 3.31905C11.5936 2.8432 12.4064 2.8432 12.9639 3.31905Z" stroke="currentColor" stroke-width="1.5"/>
</svg>
