<svg width="520" height="584" viewBox="0 0 520 584" fill="none" xmlns="http://www.w3.org/2000/svg">
<g clip-path="url(#clip0_692_107)">
<g clip-path="url(#clip1_692_107)">
<g clip-path="url(#clip2_692_107)">
<path d="M64.0356 195.971L68.6621 187.477C105.48 119.853 177.142 73.9587 259.556 73.9668C341.992 73.9668 413.676 119.884 450.486 187.531L455.113 196.033L468.371 145.197L518.709 158.112L514.403 150.338C464.786 60.7084 369.266 0 259.556 0C149.843 0 54.3314 60.7084 4.69954 150.338L0.394165 158.103L50.7853 145.197L64.0356 195.971ZM259.556 7.65851C363.117 7.65851 453.52 63.2813 503.007 146.178L462.888 135.892L452.478 175.812C413.193 110.256 341.549 66.3067 259.556 66.3067C177.593 66.3067 105.964 110.233 66.6782 175.75L56.2765 135.884L16.1038 146.17C65.5913 63.2732 156.001 7.65851 259.556 7.65851ZM455.075 388.021L450.449 396.515C413.631 464.147 341.969 510.033 259.556 510.033C177.119 510.033 105.435 464.123 68.6248 396.469L63.9983 387.976L50.7398 438.803L0.394165 425.888L4.69954 433.662C54.3249 523.283 149.837 584 259.556 584C369.268 584 464.788 523.285 514.412 433.662L518.717 425.897L468.326 438.803L455.075 388.021ZM259.556 576.341C155.994 576.341 65.5913 520.719 16.1038 437.822L56.2165 448.116L66.6327 408.195C105.918 473.736 177.562 517.693 259.556 517.693C341.525 517.693 413.148 473.767 452.439 408.242L462.835 448.108L503.007 437.822C453.52 520.711 363.118 576.341 259.556 576.341Z" fill="#6936F5"/>
<g clip-path="url(#clip3_692_107)">
<g clip-path="url(#clip4_692_107)">
<g clip-path="url(#clip5_692_107)">
<g clip-path="url(#clip6_692_107)">
<g clip-path="url(#clip7_692_107)">
<g clip-path="url(#clip8_692_107)">
<path d="M137.258 342.407H143.808V391.72C143.808 393.477 142.955 394.355 141.248 394.355H134.773C134.02 394.355 133.418 394.18 132.966 393.828C132.515 393.477 132.138 392.95 131.837 392.247L114.295 355.431C113.843 354.428 113.316 353.298 112.714 352.043C112.112 350.789 111.66 349.634 111.359 348.58H110.154C110.254 349.684 110.33 350.814 110.38 351.968C110.43 353.123 110.455 354.277 110.455 355.431V394.355H103.83V345.042C103.83 343.285 104.708 342.407 106.465 342.407H112.714C113.467 342.407 114.069 342.582 114.521 342.934C114.972 343.285 115.349 343.812 115.65 344.515L132.665 380.427C133.217 381.481 133.81 382.671 134.442 383.996C135.064 385.331 135.652 386.651 136.204 387.956H137.484C137.433 386.601 137.383 385.271 137.333 383.966C137.283 382.661 137.258 381.356 137.258 380.051V342.407ZM168.879 342.407H175.504V394.355H168.879V342.407ZM152.165 342.407H192.293V348.279H152.165V342.407ZM212.606 342.407H219.246V394.355H212.606V342.407ZM195.907 342.407H236.036V348.279H195.907V342.407ZM262.898 341.729C266.613 341.729 269.765 342.181 272.355 343.084C274.934 343.988 277.017 345.468 278.604 347.526C280.18 349.584 281.334 352.32 282.067 355.733C282.79 359.146 283.151 363.362 283.151 368.381C283.151 373.4 282.79 377.616 282.067 381.029C281.334 384.442 280.18 387.178 278.604 389.236C277.017 391.294 274.934 392.774 272.355 393.678C269.765 394.581 266.613 395.033 262.898 395.033C259.335 395.033 256.037 394.973 253.006 394.852C249.964 394.722 247.088 394.556 244.378 394.355L247.239 388.935C249.347 388.985 251.696 389.045 254.285 389.115C256.865 389.196 259.736 389.236 262.898 389.236C266.211 389.236 268.846 388.598 270.804 387.323C272.761 386.039 274.156 383.88 274.99 380.849C275.813 377.807 276.224 373.651 276.224 368.381C276.224 363.111 275.813 358.955 274.99 355.913C274.156 352.882 272.761 350.713 270.804 349.408C268.846 348.103 266.211 347.451 262.898 347.451C259.787 347.451 256.991 347.476 254.511 347.526C252.022 347.576 249.598 347.627 247.239 347.677L244.378 342.407C247.088 342.206 249.964 342.04 253.006 341.91C256.037 341.789 259.335 341.729 262.898 341.729ZM244.378 342.407H251.003V394.355H244.378V342.407ZM307.469 342.407H314.395C314.998 342.407 315.525 342.567 315.977 342.888C316.428 343.22 316.729 343.661 316.88 344.214L333.594 394.355H326.743L313.266 351.742C313.065 351.04 312.855 350.322 312.634 349.589C312.403 348.866 312.187 348.179 311.986 347.526H309.878C309.677 348.179 309.477 348.866 309.276 349.589C309.075 350.322 308.849 351.04 308.598 351.742L295.122 394.355H288.27L304.984 344.214C305.135 343.661 305.436 343.22 305.888 342.888C306.34 342.567 306.867 342.407 307.469 342.407ZM297.681 372.371H324.032V378.093H297.681V372.371ZM348.426 342.407H355.051V394.355H348.426V342.407ZM331.712 342.407H371.84V348.279H331.712V342.407ZM389.156 342.407H396.083C396.685 342.407 397.212 342.567 397.664 342.888C398.116 343.22 398.417 343.661 398.567 344.214L415.281 394.355H408.43L394.954 351.742C394.753 351.04 394.537 350.322 394.306 349.589C394.085 348.866 393.875 348.179 393.674 347.526H391.566C391.365 348.179 391.164 348.866 390.963 349.589C390.763 350.322 390.537 351.04 390.286 351.742L376.809 394.355H369.958L386.672 344.214C386.823 343.661 387.124 343.22 387.575 342.888C388.027 342.567 388.554 342.407 389.156 342.407ZM379.369 372.371H405.72V378.093H379.369V372.371Z" fill="#6936F5"/>
</g>
</g>
</g>
</g>
<g clip-path="url(#clip9_692_107)">
<g clip-path="url(#clip10_692_107)">
<path d="M195.758 252.764C195.758 217.53 224.321 188.967 259.556 188.967C294.79 188.967 323.353 217.53 323.353 252.764C323.353 287.999 294.79 316.561 259.556 316.561C224.321 316.561 195.758 287.999 195.758 252.764ZM259.556 311.755C292.135 311.755 318.546 285.343 318.546 252.764C318.546 220.185 292.135 193.774 259.556 193.774C226.976 193.774 200.565 220.185 200.565 252.764C200.565 285.343 226.976 311.755 259.556 311.755Z" fill="#6936F5"/>
<path d="M259.556 315.923C294.437 315.923 322.715 287.646 322.715 252.764C322.715 217.882 294.437 189.605 259.556 189.605C224.674 189.605 196.396 217.882 196.396 252.764C196.396 287.646 224.674 315.923 259.556 315.923Z" fill="#6936F5"/>
<g clip-path="url(#clip11_692_107)">
<g clip-path="url(#clip12_692_107)">
<path d="M274.455 241.596C284.628 251.213 288.216 265.37 268.15 277.881C270.974 274.058 272.536 270.284 272.879 266.502C273.617 258.345 268.53 251.708 262.923 245.75C254.703 237.017 254.092 228.593 260.998 219.24C259.575 231.542 267.349 234.88 274.455 241.596ZM252.369 286.675C257.165 276.55 258.013 270.927 246.01 259.573C242.749 256.488 240.23 253.345 238.478 250.198C236.243 255.189 234.472 265.775 240.994 271.867C245.406 275.988 251.466 278.46 252.369 286.675ZM261.228 247.345C254.614 240.317 249.817 230.465 259.126 217.857C233.914 227.703 232.461 243.553 247.608 257.882C260.37 269.953 259.708 276.617 254.472 287.671C279.198 269.442 270.536 257.236 261.228 247.345Z" fill="white"/>
</g>
</g>
</g>
</g>
</g>
</g>
</g>
</g>
</g>
<defs>
<clipPath id="clip0_692_107">
<rect width="519.111" height="584" fill="white"/>
</clipPath>
<clipPath id="clip1_692_107">
<rect width="519.111" height="584" fill="white"/>
</clipPath>
<clipPath id="clip2_692_107">
<rect width="519.111" height="584" fill="white"/>
</clipPath>
<clipPath id="clip3_692_107">
<rect width="311.467" height="206.066" fill="white" transform="translate(103.822 188.967)"/>
</clipPath>
<clipPath id="clip4_692_107">
<rect width="311.467" height="206.066" fill="white" transform="translate(103.822 188.967)"/>
</clipPath>
<clipPath id="clip5_692_107">
<rect width="311.467" height="53.3039" fill="white" transform="translate(103.822 341.729)"/>
</clipPath>
<clipPath id="clip6_692_107">
<rect width="311.467" height="53.3039" fill="white" transform="translate(103.822 341.729)"/>
</clipPath>
<clipPath id="clip7_692_107">
<rect width="311.467" height="53.3039" fill="white" transform="translate(103.822 341.729)"/>
</clipPath>
<clipPath id="clip8_692_107">
<rect width="311.467" height="53.3039" fill="white" transform="translate(103.822 341.729)"/>
</clipPath>
<clipPath id="clip9_692_107">
<rect width="127.594" height="127.594" fill="white" transform="translate(195.758 188.967)"/>
</clipPath>
<clipPath id="clip10_692_107">
<rect width="127.594" height="127.594" fill="white" transform="translate(195.758 188.967)"/>
</clipPath>
<clipPath id="clip11_692_107">
<rect width="46.2189" height="69.8139" fill="white" transform="translate(236.446 217.857)"/>
</clipPath>
<clipPath id="clip12_692_107">
<rect width="46.2189" height="69.8139" fill="white" transform="translate(236.446 217.857)"/>
</clipPath>
</defs>
</svg>
