<svg width="24" height="24" viewBox="0 0 24 24" fill="none" xmlns="http://www.w3.org/2000/svg">
<path d="M11.644 1.59012C11.7534 1.53113 11.8757 1.50024 12 1.50024C12.1243 1.50024 12.2466 1.53113 12.356 1.59012L22.106 6.84012C22.2251 6.90438 22.3245 6.99966 22.3939 7.11585C22.4632 7.23204 22.4998 7.36482 22.4998 7.50012C22.4998 7.63542 22.4632 7.7682 22.3939 7.88439C22.3245 8.00058 22.2251 8.09586 22.106 8.16012L12.356 13.4101C12.2466 13.4691 12.1243 13.5 12 13.5C11.8757 13.5 11.7534 13.4691 11.644 13.4101L1.89401 8.16012C1.77495 8.09586 1.67549 8.00058 1.60617 7.88439C1.53684 7.7682 1.50024 7.63542 1.50024 7.50012C1.50024 7.36482 1.53684 7.23204 1.60617 7.11585C1.67549 6.99966 1.77495 6.90438 1.89401 6.84012L11.644 1.59012Z" fill="currentColor"/>
<path d="M3.26499 10.6021L10.933 14.7311C11.2609 14.9077 11.6275 15.0002 12 15.0002C12.3724 15.0002 12.7391 14.9077 13.067 14.7311L20.735 10.6011L22.105 11.3401C22.2241 11.4043 22.3235 11.4996 22.3928 11.6158C22.4622 11.732 22.4988 11.8648 22.4988 12.0001C22.4988 12.1354 22.4622 12.2682 22.3928 12.3843C22.3235 12.5005 22.2241 12.5958 22.105 12.6601L12.355 17.9101C12.2459 17.9687 12.1239 17.9994 12 17.9994C11.8761 17.9994 11.7541 17.9687 11.645 17.9101L1.89499 12.6601C1.77593 12.5958 1.67646 12.5005 1.60714 12.3843C1.53782 12.2682 1.50122 12.1354 1.50122 12.0001C1.50122 11.8648 1.53782 11.732 1.60714 11.6158C1.67646 11.4996 1.77593 11.4043 1.89499 11.3401L3.26499 10.6021Z" fill="currentColor"/>
<path d="M10.933 19.2311L3.26499 15.1011L1.89499 15.8401C1.77593 15.9043 1.67646 15.9996 1.60714 16.1158C1.53782 16.232 1.50122 16.3648 1.50122 16.5001C1.50122 16.6354 1.53782 16.7682 1.60714 16.8843C1.67646 17.0005 1.77593 17.0958 1.89499 17.1601L11.645 22.4101C11.866 22.5301 12.134 22.5301 12.355 22.4101L22.105 17.1601C22.2241 17.0958 22.3235 17.0005 22.3928 16.8843C22.4622 16.7682 22.4988 16.6354 22.4988 16.5001C22.4988 16.3648 22.4622 16.232 22.3928 16.1158C22.3235 15.9996 22.2241 15.9043 22.105 15.8401L20.735 15.1021L13.067 19.2321C12.739 19.4085 12.3723 19.5008 11.9999 19.5007C11.6274 19.5005 11.2608 19.4079 10.933 19.2311Z" fill="currentColor"/>
</svg>
